REM DIRINDEX 1\2\5,1\2\6,1\2\7,1\2\8,1\3\9,1\3\10,1\3\11,1\4\12,1\4\13,1\4\14,1\4\15,1\4\16
REM DIRNAME folder01,folder02,folder03,folder04,folder05,folder06,folder07,folder08,folder09,folder10,folder11,folder12,folder13,folder14,folder15,folder16
TITLE ""
FILE "1200_2_sec04_1421_1440.mp3" MP3
  TRACK 01 AUDIO
    TITLE "0:"
    INDEX 01 00:00:00
  TRACK 02 AUDIO
    TITLE "10:cjc034_02954"
    INDEX 01 00:00:15
  TRACK 03 AUDIO
    TITLE "0:"
    INDEX 01 00:01:28
  TRACK 04 AUDIO
    TITLE "9:cjc034_02955"
    INDEX 01 00:01:32
  TRACK 05 AUDIO
    TITLE "0:"
    INDEX 01 00:03:27
  TRACK 06 AUDIO
    TITLE "10:cjc034_02956"
    INDEX 01 00:04:09
  TRACK 07 AUDIO
    TITLE "0:"
    INDEX 01 00:06:53
  TRACK 08 AUDIO
    TITLE "9:cjc034_02957"
    INDEX 01 00:06:55
  TRACK 09 AUDIO
    TITLE "0:"
    INDEX 01 00:08:09
  TRACK 10 AUDIO
    TITLE "10:cjc034_02958"
    INDEX 01 00:08:68
  TRACK 11 AUDIO
    TITLE "0:"
    INDEX 01 00:10:16
  TRACK 12 AUDIO
    TITLE "9:cjc034_02959"
    INDEX 01 00:10:21
  TRACK 13 AUDIO
    TITLE "0:"
    INDEX 01 00:11:56
  TRACK 14 AUDIO
    TITLE "10:cjc034_02960"
    INDEX 01 00:12:38
  TRACK 15 AUDIO
    TITLE "0:"
    INDEX 01 00:13:63
  TRACK 16 AUDIO
    TITLE "9:cjc034_02961"
    INDEX 01 00:13:67
  TRACK 17 AUDIO
    TITLE "0:"
    INDEX 01 00:15:58
  TRACK 18 AUDIO
    TITLE "10:cjc034_02962"
    INDEX 01 00:16:40
  TRACK 19 AUDIO
    TITLE "0:"
    INDEX 01 00:17:37
  TRACK 20 AUDIO
    TITLE "9:cjc034_02963"
    INDEX 01 00:17:41
  TRACK 21 AUDIO
    TITLE "0:"
    INDEX 01 00:19:01
  TRACK 22 AUDIO
    TITLE "10:cjc034_02964"
    INDEX 01 00:19:60
  TRACK 23 AUDIO
    TITLE "0:"
    INDEX 01 00:23:51
  TRACK 24 AUDIO
    TITLE "9:cjc034_02965"
    INDEX 01 00:23:55
  TRACK 25 AUDIO
    TITLE "0:"
    INDEX 01 00:25:25
  TRACK 26 AUDIO
    TITLE "10:cjc034_02966"
    INDEX 01 00:26:09
  TRACK 27 AUDIO
    TITLE "0:"
    INDEX 01 00:27:49
  TRACK 28 AUDIO
    TITLE "9:cjc034_02967"
    INDEX 01 00:27:51
  TRACK 29 AUDIO
    TITLE "0:"
    INDEX 01 00:29:05
  TRACK 30 AUDIO
    TITLE "10:cjc034_02968"
    INDEX 01 00:29:60
  TRACK 31 AUDIO
    TITLE "0:"
    INDEX 01 00:31:06
  TRACK 32 AUDIO
    TITLE "9:cjc034_02969"
    INDEX 01 00:31:08
  TRACK 33 AUDIO
    TITLE "0:"
    INDEX 01 00:33:03
  TRACK 34 AUDIO
    TITLE "10:cjc034_02970"
    INDEX 01 00:33:60
  TRACK 35 AUDIO
    TITLE "0:"
    INDEX 01 00:35:08
  TRACK 36 AUDIO
    TITLE "9:cjc034_02971"
    INDEX 01 00:35:17
  TRACK 37 AUDIO
    TITLE "0:"
    INDEX 01 00:37:38
  TRACK 38 AUDIO
    TITLE "10:cjc034_02972"
    INDEX 01 00:38:18
  TRACK 39 AUDIO
    TITLE "0:"
    INDEX 01 00:39:33
  TRACK 40 AUDIO
    TITLE "9:cjc034_02973"
    INDEX 01 00:39:37
  TRACK 41 AUDIO
    TITLE "0:"
    INDEX 01 00:40:62
  TRACK 42 AUDIO
    TITLE "10:cjc034_02974"
    INDEX 01 00:41:47
  TRACK 43 AUDIO
    TITLE "0:"
    INDEX 01 00:42:61
  TRACK 44 AUDIO
    TITLE "9:cjc034_02975"
    INDEX 01 00:42:68
  TRACK 45 AUDIO
    TITLE "0:"
    INDEX 01 00:44:44
  TRACK 46 AUDIO
    TITLE "10:cjc034_02976"
    INDEX 01 00:45:24
  TRACK 47 AUDIO
    TITLE "0:"
    INDEX 01 00:48:32
  TRACK 48 AUDIO
    TITLE "9:cjc034_02977"
    INDEX 01 00:48:34
  TRACK 49 AUDIO
    TITLE "0:"
    INDEX 01 00:50:01
  TRACK 50 AUDIO
    TITLE "10:cjc034_02978"
    INDEX 01 00:50:62
  TRACK 51 AUDIO
    TITLE "0:"
    INDEX 01 00:53:02
  TRACK 52 AUDIO
    TITLE "9:cjc034_02979"
    INDEX 01 00:53:04
  TRACK 53 AUDIO
    TITLE "0:"
    INDEX 01 00:55:08
  TRACK 54 AUDIO
    TITLE "11:cjc034_02980"
    INDEX 01 00:56:61
  TRACK 55 AUDIO
    TITLE "0:"
    INDEX 01 01:01:27
  TRACK 56 AUDIO
    TITLE "10:cjc034_02981"
    INDEX 01 01:02:34
  TRACK 57 AUDIO
    TITLE "0:"
    INDEX 01 01:04:15
  TRACK 58 AUDIO
    TITLE "9:cjc034_02982"
    INDEX 01 01:04:17
  TRACK 59 AUDIO
    TITLE "0:"
    INDEX 01 01:07:61
  TRACK 60 AUDIO
    TITLE "10:cjc034_02983"
    INDEX 01 01:08:46
  TRACK 61 AUDIO
    TITLE "0:"
    INDEX 01 01:10:63
  TRACK 62 AUDIO
    TITLE "9:cjc034_02984"
    INDEX 01 01:10:69
  TRACK 63 AUDIO
    TITLE "0:"
    INDEX 01 01:13:30
  TRACK 64 AUDIO
    TITLE "10:cjc034_02985"
    INDEX 01 01:14:14
  TRACK 65 AUDIO
    TITLE "0:"
    INDEX 01 01:16:30
  TRACK 66 AUDIO
    TITLE "9:cjc034_02986"
    INDEX 01 01:16:34
  TRACK 67 AUDIO
    TITLE "0:"
    INDEX 01 01:18:64
  TRACK 68 AUDIO
    TITLE "10:cjc034_02987"
    INDEX 01 01:19:44
  TRACK 69 AUDIO
    TITLE "0:"
    INDEX 01 01:23:01
  TRACK 70 AUDIO
    TITLE "9:cjc034_02988"
    INDEX 01 01:23:03
  TRACK 71 AUDIO
    TITLE "0:"
    INDEX 01 01:27:08
  TRACK 72 AUDIO
    TITLE "10:cjc034_02989"
    INDEX 01 01:27:67
  TRACK 73 AUDIO
    TITLE "0:"
    INDEX 01 01:28:71
  TRACK 74 AUDIO
    TITLE "9:cjc034_02990"
    INDEX 01 01:28:72
  TRACK 75 AUDIO
    TITLE "0:"
    INDEX 01 01:30:30
  TRACK 76 AUDIO
    TITLE "10:cjc034_02991"
    INDEX 01 01:31:10
  TRACK 77 AUDIO
    TITLE "0:"
    INDEX 01 01:33:09
  TRACK 78 AUDIO
    TITLE "9:cjc034_02992"
    INDEX 01 01:33:11
  TRACK 79 AUDIO
    TITLE "0:"
    INDEX 01 01:35:45
  TRACK 80 AUDIO
    TITLE "10:cjc034_02993"
    INDEX 01 01:36:25
  TRACK 81 AUDIO
    TITLE "0:"
    INDEX 01 01:37:56
  TRACK 82 AUDIO
    TITLE "9:cjc034_02994"
    INDEX 01 01:37:60
  TRACK 83 AUDIO
    TITLE "0:"
    INDEX 01 01:39:31
